<?xml version="1.0" encoding="utf-8"?>
<!-- Generator: Adobe Illustrator 25.0.0, SVG Export Plug-In . SVG Version: 6.00 Build 0)  -->
<svg version="1.1" id="Layer_1" xmlns="http://www.w3.org/2000/svg" xmlns:xlink="http://www.w3.org/1999/xlink" x="0px" y="0px"
	 viewBox="0 0 424.43 107.77" style="enable-background:new 0 0 424.43 107.77;" xml:space="preserve">
<style type="text/css">
	.st0{fill:url(#SVGID_1_);}
	.st1{fill:url(#SVGID_2_);}
	.st2{fill:#fff;}
</style>
<linearGradient id="SVGID_1_" gradientUnits="userSpaceOnUse" x1="49.8456" y1="77.9608" x2="49.8456" y2="25.7955">
	<stop  offset="0" style="stop-color:#5352EF"/>
	<stop  offset="1" style="stop-color:#1BB4F6"/>
</linearGradient>
<path class="st0" d="M16.72,73.55c0,2.44,1.98,4.41,4.41,4.41l57.42,0c4.23,0,6.04-5.38,2.66-7.93L23.79,26.69
	c-0.82-0.62-1.74-0.9-2.64-0.9c-2.29,0-4.43,1.81-4.43,4.42V73.55z"/>
<linearGradient id="SVGID_2_" gradientUnits="userSpaceOnUse" x1="67.6532" y1="25.7955" x2="67.6532" y2="67.5989">
	<stop  offset="0" style="stop-color:#00A137"/>
	<stop  offset="1" style="stop-color:#A3D76E"/>
</linearGradient>
<path class="st1" d="M82.97,67.6V30.22c0-3.64-4.16-5.72-7.07-3.52L52.34,44.48L82.97,67.6z"/>
<g>
	<path class="st2" d="M135.05,51.49l-11.63,15.5h-1.33l-11.37-15.55v25.96H104V41.7h7.75l11.17,15.35l11.17-15.35h7.7v35.7h-6.73
		V51.49z"/>
	<path class="st2" d="M168.91,52.2h5.97v25.14h-5.86l-0.31-3.67c-1.43,2.96-5.35,4.39-8.16,4.44c-7.45,0.05-12.95-4.54-12.95-13.36
		c0-8.67,5.76-13.21,13.11-13.16c3.37,0,6.58,1.58,8.01,4.08L168.91,52.2z M153.81,64.75c0,4.79,3.31,7.65,7.45,7.65
		c9.79,0,9.79-15.25,0-15.25C157.13,57.15,153.81,59.95,153.81,64.75z"/>
	<path class="st2" d="M186.93,52.2l0.46,2.91c1.94-3.11,4.54-3.57,7.09-3.57c2.6,0,5.1,1.02,6.48,2.4l-2.8,5.41
		c-1.27-1.07-2.45-1.63-4.49-1.63c-3.26,0-6.27,1.73-6.27,6.37v13.26h-6.22V52.2H186.93z"/>
	<path class="st2" d="M210.59,41.7v20.6l8.46-10.1h7.45v0.36l-10.25,11.47l11.68,12.85v0.46h-7.5l-9.84-11.37v11.37h-6.22V41.7
		H210.59z"/>
	<path class="st2" d="M235.07,66.99c0.41,3.11,3.11,5.35,7.5,5.35c2.29,0,5.3-0.87,6.73-2.35l3.98,3.93
		c-2.65,2.75-6.99,4.08-10.81,4.08c-8.67,0-13.82-5.35-13.82-13.41c0-7.65,5.2-13.16,13.36-13.16c8.41,0,13.67,5.2,12.7,15.55
		H235.07z M248.74,61.84c-0.41-3.26-2.96-4.9-6.53-4.9c-3.37,0-6.12,1.63-7.04,4.9H248.74z"/>
	<path class="st2" d="M268.82,45.11v7.14h6.94v5.35h-6.99v10.86c0,2.4,1.33,3.57,3.26,3.57c0.97,0,2.09-0.31,3.01-0.76l1.73,5.3
		c-1.79,0.71-3.26,1.02-5.15,1.07c-5.46,0.2-9.03-2.91-9.03-9.18V57.61h-4.69v-5.35h4.69v-6.48L268.82,45.11z"/>
	<path class="st2" d="M280.96,87.85V52.2h5.81l0.41,3.47c1.94-2.8,5.3-4.03,8.16-4.03c7.75,0,12.9,5.76,12.9,13.16
		c0,7.34-4.64,13.16-12.7,13.16c-2.65,0-6.58-0.82-8.36-3.57v13.46H280.96z M302.02,64.8c0-3.93-2.65-7.14-7.14-7.14
		c-4.49,0-7.14,3.21-7.14,7.14s2.91,7.14,7.14,7.14C299.11,71.94,302.02,68.72,302.02,64.8z"/>
	<path class="st2" d="M319.68,41.7v35.65h-6.17V41.7H319.68z"/>
	<path class="st2" d="M346.04,52.2h5.97v25.14h-5.86l-0.31-3.67c-1.43,2.96-5.35,4.39-8.16,4.44c-7.45,0.05-12.95-4.54-12.95-13.36
		c0-8.67,5.76-13.21,13.11-13.16c3.37,0,6.58,1.58,8.01,4.08L346.04,52.2z M330.95,64.75c0,4.79,3.31,7.65,7.44,7.65
		c9.79,0,9.79-15.25,0-15.25C334.26,57.15,330.95,59.95,330.95,64.75z"/>
	<path class="st2" d="M379.96,74.13c-2.91,2.86-5.97,3.98-9.69,3.98c-7.29,0-13.36-4.39-13.36-13.31s6.07-13.31,13.36-13.31
		c3.57,0,6.32,1.02,9.08,3.72l-3.93,4.13c-1.48-1.33-3.31-1.99-5.05-1.99c-4.18,0-7.24,3.06-7.24,7.45c0,4.79,3.26,7.34,7.14,7.34
		c1.99,0,3.98-0.56,5.51-2.09L379.96,74.13z"/>
	<path class="st2" d="M388.1,66.99c0.41,3.11,3.11,5.35,7.5,5.35c2.29,0,5.3-0.87,6.73-2.35l3.98,3.93
		c-2.65,2.75-6.99,4.08-10.81,4.08c-8.67,0-13.82-5.35-13.82-13.41c0-7.65,5.2-13.16,13.36-13.16c8.41,0,13.67,5.2,12.7,15.55H388.1
		z M401.77,61.84c-0.41-3.26-2.96-4.9-6.53-4.9c-3.37,0-6.12,1.63-7.04,4.9H401.77z"/>
</g>
</svg>
